<?xml version="1.0" encoding="iso-8859-1"?>
<!-- Generator: Adobe Illustrator 19.0.0, SVG Export Plug-In . SVG Version: 6.00 Build 0)  -->
<svg version="1.1" id="Capa_1" xmlns="http://www.w3.org/2000/svg" xmlns:xlink="http://www.w3.org/1999/xlink" x="0px" y="0px"
	 viewBox="0 0 512 512" style="enable-background:new 0 0 512 512;" xml:space="preserve">
<g>
	<g>
		<path d="M497.027,155.314l-230-152c-6.688-4.419-15.367-4.419-22.055,0l-230,152C9.37,159.016,6,165.284,6,172v320
			c0,11.046,8.954,20,20,20c5.833,0,444.336,0,460,0c11.046,0,20-8.954,20-20V172C506,165.284,502.63,159.016,497.027,155.314z
			 M296,472h-80V352h80V472z M466,472H336V332c0-11.046-8.954-20-20-20H196c-11.046,0-20,8.954-20,20v140H46V182.755L256,43.973
			l210,138.782V472z"/>
	</g>
</g>
<g>
</g>
<g>
</g>
<g>
</g>
<g>
</g>
<g>
</g>
<g>
</g>
<g>
</g>
<g>
</g>
<g>
</g>
<g>
</g>
<g>
</g>
<g>
</g>
<g>
</g>
<g>
</g>
<g>
</g>
</svg>
